<svg width="32" height="32" viewBox="0 0 32 32" fill="none" xmlns="http://www.w3.org/2000/svg">
<path d="M6.66671 17.3333H22.48L17.64 23.1466C17.528 23.2815 17.4436 23.437 17.3916 23.6045C17.3397 23.7719 17.3212 23.948 17.3373 24.1225C17.3699 24.4751 17.5411 24.8003 17.8134 25.0266C18.0857 25.2529 18.4367 25.3618 18.7893 25.3293C19.1418 25.2968 19.4671 25.1256 19.6934 24.8533L26.36 16.8533C26.4049 16.7897 26.445 16.7228 26.48 16.6533C26.48 16.5866 26.5467 16.5466 26.5734 16.48C26.6338 16.3271 26.6655 16.1643 26.6667 16C26.6655 15.8356 26.6338 15.6728 26.5734 15.52C26.5734 15.4533 26.5067 15.4133 26.48 15.3466C26.445 15.2771 26.4049 15.2103 26.36 15.1466L19.6934 7.14663C19.568 6.99612 19.411 6.87508 19.2336 6.79212C19.0561 6.70916 18.8626 6.66631 18.6667 6.66663C18.3552 6.66602 18.0533 6.77452 17.8134 6.9733C17.6784 7.08523 17.5668 7.22269 17.485 7.37782C17.4032 7.53295 17.3528 7.7027 17.3367 7.87733C17.3206 8.05197 17.3391 8.22807 17.3911 8.39554C17.4432 8.56301 17.5278 8.71856 17.64 8.8533L22.48 14.6666H6.66671C6.31309 14.6666 5.97395 14.8071 5.7239 15.0572C5.47385 15.3072 5.33337 15.6463 5.33337 16C5.33337 16.3536 5.47385 16.6927 5.7239 16.9428C5.97395 17.1928 6.31309 17.3333 6.66671 17.3333Z" fill="black"/>
</svg>
