<svg width="48" height="48" viewBox="0 0 48 48" fill="none" xmlns="http://www.w3.org/2000/svg">
<path d="M26.8199 23.9999L35.4199 15.4199C35.7965 15.0433 36.0081 14.5325 36.0081 13.9999C36.0081 13.4673 35.7965 12.9565 35.4199 12.5799C35.0433 12.2033 34.5325 11.9917 33.9999 11.9917C33.4673 11.9917 32.9565 12.2033 32.5799 12.5799L23.9999 21.1799L15.4199 12.5799C15.0433 12.2033 14.5325 11.9917 13.9999 11.9917C13.4673 11.9917 12.9565 12.2033 12.5799 12.5799C12.2033 12.9565 11.9918 13.4673 11.9918 13.9999C11.9918 14.5325 12.2033 15.0433 12.5799 15.4199L21.1799 23.9999L12.5799 32.5799C12.3925 32.7658 12.2437 32.987 12.1422 33.2307C12.0406 33.4744 11.9883 33.7359 11.9883 33.9999C11.9883 34.2639 12.0406 34.5253 12.1422 34.769C12.2437 35.0128 12.3925 35.234 12.5799 35.4199C12.7659 35.6073 12.9871 35.7561 13.2308 35.8577C13.4745 35.9592 13.7359 36.0115 13.9999 36.0115C14.264 36.0115 14.5254 35.9592 14.7691 35.8577C15.0128 35.7561 15.234 35.6073 15.4199 35.4199L23.9999 26.8199L32.5799 35.4199C32.7659 35.6073 32.9871 35.7561 33.2308 35.8577C33.4745 35.9592 33.7359 36.0115 33.9999 36.0115C34.264 36.0115 34.5254 35.9592 34.7691 35.8577C35.0128 35.7561 35.234 35.6073 35.4199 35.4199C35.6074 35.234 35.7562 35.0128 35.8577 34.769C35.9593 34.5253 36.0115 34.2639 36.0115 33.9999C36.0115 33.7359 35.9593 33.4744 35.8577 33.2307C35.7562 32.987 35.6074 32.7658 35.4199 32.5799L26.8199 23.9999Z" fill="black" fill-opacity="0.4"/>
</svg>
