<svg width="24" height="24" viewBox="0 0 24 24" fill="none" xmlns="http://www.w3.org/2000/svg">
<path d="M6.19397 9.23041H8.51669V11.5625H6.19397V9.23041Z" fill="currentColor"/>
<path d="M6.19397 15.4491H8.51669V17.7812H6.19397V15.4491Z" fill="currentColor"/>
<path d="M23.3112 10.867L19.053 8.01814C18.7987 7.84761 18.4995 7.75679 18.1938 7.75679C17.8879 7.75679 17.5887 7.84761 17.3343 8.01814L14.7097 9.77116V5.92705C14.7097 5.43769 14.4802 4.97704 14.0903 4.68346L8.28386 0.310968C8.01601 0.108986 7.6901 0 7.35497 0C7.01988 0 6.69397 0.108986 6.42587 0.310968L0.619418 4.68346C0.229514 4.97707 0 5.43767 0 5.92705V24H24V12.161C24.0003 11.641 23.7416 11.1554 23.3109 10.8667L23.3112 10.867ZM12.3875 21.6677H2.32298V6.31544L7.35531 2.52581L12.3876 6.31544L12.3875 21.6677ZM21.6778 21.6677H14.7101V12.5771L18.1938 10.245L21.6775 12.5771L21.6778 21.6677Z" fill="currentColor"/>
</svg>
