<svg width="26" height="26" viewBox="0 0 26 26" fill="none" xmlns="http://www.w3.org/2000/svg">
<path d="M16.9703 10.6992C15.381 4.35048 6.88615 1.25282 6.52504 1.1243L6.17628 1L5.92877 1.28044C5.67304 1.5704 -0.321523 8.45923 1.26772 14.808C2.87502 21.2281 7.70521 25.53 12.0342 24.3971C16.3631 23.2642 18.5775 17.1192 16.9702 10.6991L16.9703 10.6992ZM2.34507 14.5257C1.20705 9.98044 4.57845 4.87262 6.07625 2.89094L8.56711 12.8396L5.23532 10.8218L4.66873 11.7996L8.95703 14.3968L10.0318 18.6895L4.90345 15.5836L4.33685 16.5614L10.4215 20.2463L11.2095 23.3941C7.6183 23.8758 3.72966 20.0559 2.34557 14.5257L2.34507 14.5257ZM12.2863 23.112L11.0329 18.1063L14.6445 11.8742L13.688 11.295L10.643 16.5491L9.56666 12.2504L11.6004 8.58918L10.6339 8.02807L9.16949 10.6644L7.15267 2.60857C9.39729 3.60847 14.7533 6.42885 15.8926 10.9809C17.2772 16.5108 15.6619 21.7709 12.286 23.1116L12.2863 23.112Z" fill="currentColor" stroke="currentColor" stroke-width="0.5"/>
<path d="M21.3529 2.40037L21.1398 2.09161L20.779 2.17256C20.5483 2.22432 17.1012 3.02452 13.9538 5.06876C14.2512 5.32245 14.5429 5.58918 14.8256 5.86851C15.0675 5.71834 15.3109 5.57568 15.5541 5.43989C16.1248 5.1214 16.6929 4.8434 17.2364 4.60079C17.3061 4.5696 17.3753 4.53908 17.4441 4.50922C17.5685 4.45526 17.6912 4.40306 17.8123 4.35286C17.9181 4.30884 18.0226 4.2666 18.1256 4.22546C18.3314 4.14341 18.5308 4.0671 18.7221 3.99655C19.1049 3.85522 19.4555 3.73645 19.7615 3.63914C19.8379 3.61481 19.9116 3.59181 19.9822 3.57013L17.5586 9.95285C17.6629 10.2384 17.7581 10.5286 17.8332 10.8285C17.9102 11.1363 17.9744 11.4431 18.0335 11.749C18.0372 11.7461 18.0428 11.7446 18.0471 11.7421C18.0599 11.7267 18.0742 11.7121 18.0887 11.6977L21.0189 3.98044C21.1368 4.18192 21.2677 4.41238 21.4068 4.6687C21.4996 4.83967 21.5961 5.02191 21.6948 5.21433C21.7934 5.40697 21.8945 5.60978 21.9962 5.82186C22.0978 6.03396 22.2004 6.25535 22.3023 6.4847C22.4042 6.71406 22.5055 6.95181 22.6045 7.19641C22.7036 7.44101 22.8008 7.69271 22.8942 7.95058C23.0812 8.46591 23.254 9.00535 23.4011 9.56005C23.4747 9.83739 23.5418 10.1185 23.6013 10.4023C23.7198 10.97 23.807 11.5488 23.8509 12.1296C23.873 12.42 23.8843 12.7111 23.8834 13.0017C23.8817 13.5829 23.831 14.1619 23.72 14.7303C23.637 15.1567 23.5197 15.5769 23.3639 15.9877C23.1043 16.6715 22.807 17.322 22.4784 17.9349C22.3689 18.1392 22.256 18.3392 22.1396 18.5349C21.9847 18.7959 21.824 19.0489 21.6582 19.2937C21.4923 19.5386 21.3214 19.7754 21.1459 20.0035C20.6191 20.6878 20.0512 21.2947 19.4575 21.8126C19.2596 21.9854 19.0588 22.1481 18.8559 22.3007C18.5513 22.5297 18.2414 22.7353 17.9286 22.9165C17.6158 23.0976 17.2995 23.2544 16.9821 23.3851C16.8763 23.4287 16.7703 23.4694 16.6642 23.5072C16.4522 23.5829 16.24 23.6468 16.028 23.6983C15.922 23.7242 15.8159 23.747 15.7101 23.7667C15.3928 23.8259 15.0766 23.8573 14.7638 23.8595C14.6595 23.8602 14.5557 23.8578 14.4523 23.852C13.9707 24.1517 13.4515 24.3802 12.8967 24.5253C12.7894 24.5534 12.6814 24.5755 12.5735 24.5969C12.5795 24.5994 12.5852 24.6022 12.5912 24.6047C16.7571 26.2575 22.055 22.5761 24.4006 16.3983C26.7205 10.2907 21.5733 2.71954 21.3533 2.40021L21.3529 2.40037Z" fill="currentColor" stroke="currentColor" stroke-width="0.5"/>
<path d="M23.8514 12.1306C23.8735 12.4209 23.8848 12.7122 23.8839 13.0026C23.8848 12.7122 23.8735 12.4211 23.8514 12.1306Z" fill="currentColor" stroke="currentColor" stroke-width="0.5"/>
<path d="M18.7222 3.99718C19.1049 3.85585 19.4556 3.73708 19.7615 3.63977C19.4556 3.73709 19.1049 3.85585 18.7222 3.99718Z" fill="currentColor" stroke="currentColor" stroke-width="0.5"/>
<path d="M19.2183 8.72375L18.0887 11.6987V11.6985L19.2183 8.72375Z" fill="currentColor" stroke="currentColor" stroke-width="0.5"/>
<path d="M21.4072 4.66977C21.2681 4.41344 21.137 4.18275 21.0193 3.98151C21.137 4.18277 21.2681 4.41345 21.4072 4.66977Z" fill="currentColor" stroke="currentColor" stroke-width="0.5"/>
<path d="M23.364 15.9886C23.1044 16.6725 22.8071 17.3229 22.4785 17.9359C22.8072 17.3232 23.1044 16.6726 23.364 15.9886Z" fill="currentColor" stroke="currentColor" stroke-width="0.5"/>
<path d="M19.9822 3.5708L17.5586 9.95352L19.9822 3.5708Z" fill="currentColor" stroke="currentColor" stroke-width="0.5"/>
</svg>
